<?xml version="1.0" standalone="no"?>
<!DOCTYPE svg PUBLIC "-//W3C//DTD SVG 20010904//EN"
 "http://www.w3.org/TR/2001/REC-SVG-20010904/DTD/svg10.dtd">
<svg version="1.0" xmlns="http://www.w3.org/2000/svg"
 width="700.000000pt" height="700.000000pt" viewBox="0 0 700.000000 700.000000"
 preserveAspectRatio="xMidYMid meet">
<metadata>
Created by potrace 1.14, written by Peter Selinger 2001-2017
</metadata>
<g transform="translate(0.000000,700.000000) scale(0.100000,-0.100000)"
fill="#000000" stroke="none">
<path d="M1650 5973 c-63 -11 -176 -46 -223 -69 -157 -79 -287 -220 -354 -384
-55 -138 -53 -57 -50 -2059 l2 -1846 27 -80 c82 -241 265 -418 503 -487 l80
-23 1850 0 c1018 0 1868 3 1890 7 240 42 451 211 547 439 61 145 58 31 55
2054 l-2 1850 -23 75 c-75 243 -248 418 -497 501 l-70 24 -1855 1 c-1020 1
-1866 -1 -1880 -3z m536 -722 l-1 -436 -436 -2 -437 -1 0 234 c1 128 5 257 10
286 21 122 114 247 223 303 93 47 132 52 396 52 l246 0 -1 -436z m2332 -584
l-3 -1021 -1008 -1 c-555 0 -1013 2 -1017 5 -12 7 -12 9 -11 1066 l1 971 1020
0 1020 1 -2 -1021z m806 1012 c158 -27 285 -136 342 -294 15 -42 18 -91 20
-312 l3 -261 -438 0 -439 1 0 437 0 438 226 0 c125 0 253 -4 286 -9z m-3136
-1594 l0 -435 -21 -1 c-68 -3 -834 -4 -843 -1 -9 2 -12 123 -12 438 l0 434
438 0 438 0 0 -435z m3500 1 c0 -320 -3 -436 -11 -438 -10 -3 -838 -2 -858 1
-4 1 -7 197 -7 436 l0 435 438 0 438 0 0 -434z m-3501 -1169 l1 -437 -437 0
-438 0 0 435 c-1 385 1 434 15 437 9 2 205 3 436 3 l421 -1 2 -437z m2331
-584 l2 -1021 -1020 0 -1020 0 0 1017 c0 560 2 1020 4 1022 2 2 460 4 1018 4
l1013 -1 3 -1021z m1163 1018 c4 -1 7 -197 7 -436 l1 -435 -439 0 -438 0 0
434 c0 390 1 435 16 438 13 2 834 1 853 -1z m-3493 -1602 l-1 -438 -231 0
c-127 0 -256 5 -286 11 -173 32 -316 174 -349 348 -5 30 -9 159 -9 286 l1 231
438 1 437 0 0 -439z m3500 192 c-2 -263 -7 -304 -54 -396 -55 -110 -185 -205
-305 -224 -30 -5 -157 -8 -284 -8 l-230 2 -2 436 -1 437 438 0 439 0 -1 -247z"/>
</g>
</svg>
